{
	"asset":{
		"generator":"Khronos glTF Blender I/O v4.3.47",
		"version":"2.0"
	},
	"extensionsUsed":[
		"KHR_materials_specular"
	],
	"scene":0,
	"scenes":[
		{
			"name":"Scene",
			"nodes":[
				0
			]
		}
	],
	"nodes":[
		{
			"mesh":0,
			"name":"tajmahal",
			"rotation":[
				0.7071068286895752,
				0,
				0,
				0.7071068286895752
			]
		}
	],
	"materials":[
		{
			"doubleSided":true,
			"extensions":{
				"KHR_materials_specular":{
					"specularFactor":0
				}
			},
			"name":"Marbre_1",
			"pbrMetallicRoughness":{
				"baseColorFactor":[
					0.800000011920929,
					0.800000011920929,
					0.800000011920929,
					1
				],
				"metallicFactor":0
			}
		},
		{
			"doubleSided":true,
			"extensions":{
				"KHR_materials_specular":{
					"specularFactor":0
				}
			},
			"name":"Cuivre_verdi",
			"pbrMetallicRoughness":{
				"baseColorFactor":[
					0.800000011920929,
					0.800000011920929,
					0.800000011920929,
					1
				],
				"metallicFactor":0
			}
		},
		{
			"doubleSided":true,
			"extensions":{
				"KHR_materials_specular":{
					"specularFactor":0
				}
			},
			"name":"Socle_rotonde",
			"pbrMetallicRoughness":{
				"baseColorFactor":[
					0.800000011920929,
					0.800000011920929,
					0.800000011920929,
					1
				],
				"metallicFactor":0
			}
		},
		{
			"doubleSided":true,
			"extensions":{
				"KHR_materials_specular":{
					"specularFactor":0
				}
			},
			"name":"frise_dome",
			"pbrMetallicRoughness":{
				"baseColorFactor":[
					0.800000011920929,
					0.800000011920929,
					0.800000011920929,
					1
				],
				"metallicFactor":0
			}
		},
		{
			"doubleSided":true,
			"extensions":{
				"KHR_materials_specular":{
					"specularFactor":0
				}
			},
			"name":"Frise_socle",
			"pbrMetallicRoughness":{
				"baseColorFactor":[
					0.800000011920929,
					0.800000011920929,
					0.800000011920929,
					1
				],
				"metallicFactor":0
			}
		},
		{
			"doubleSided":true,
			"extensions":{
				"KHR_materials_specular":{
					"specularFactor":0
				}
			},
			"name":"BP",
			"pbrMetallicRoughness":{
				"baseColorFactor":[
					0.800000011920929,
					0.800000011920929,
					0.800000011920929,
					1
				],
				"metallicFactor":0
			}
		},
		{
			"doubleSided":true,
			"extensions":{
				"KHR_materials_specular":{
					"specularFactor":0
				}
			},
			"name":"facade_2",
			"pbrMetallicRoughness":{
				"baseColorFactor":[
					0.800000011920929,
					0.800000011920929,
					0.800000011920929,
					1
				],
				"metallicFactor":0
			}
		}
	],
	"meshes":[
		{
			"name":"tajmahal",
			"primitives":[
				{
					"attributes":{
						"POSITION":0,
						"NORMAL":1,
						"TEXCOORD_0":2
					},
					"indices":3,
					"material":0
				},
				{
					"attributes":{
						"POSITION":4,
						"NORMAL":5,
						"TEXCOORD_0":6
					},
					"indices":7,
					"material":1
				},
				{
					"attributes":{
						"POSITION":8,
						"NORMAL":9,
						"TEXCOORD_0":10
					},
					"indices":11,
					"material":2
				},
				{
					"attributes":{
						"POSITION":12,
						"NORMAL":13,
						"TEXCOORD_0":14
					},
					"indices":15,
					"material":3
				},
				{
					"attributes":{
						"POSITION":16,
						"NORMAL":17,
						"TEXCOORD_0":18
					},
					"indices":19,
					"material":4
				},
				{
					"attributes":{
						"POSITION":20,
						"NORMAL":21,
						"TEXCOORD_0":22
					},
					"indices":23,
					"material":5
				},
				{
					"attributes":{
						"POSITION":24,
						"NORMAL":25,
						"TEXCOORD_0":26
					},
					"indices":27,
					"material":6
				}
			]
		}
	],
	"accessors":[
		{
			"bufferView":0,
			"componentType":5126,
			"count":632891,
			"max":[
				324.1951904296875,
				335.1754455566406,
				0.21542200446128845
			],
			"min":[
				-324.19512939453125,
				-324.1951904296875,
				-328.10235595703125
			],
			"type":"VEC3"
		},
		{
			"bufferView":1,
			"componentType":5126,
			"count":632891,
			"type":"VEC3"
		},
		{
			"bufferView":2,
			"componentType":5126,
			"count":632891,
			"type":"VEC2"
		},
		{
			"bufferView":3,
			"componentType":5125,
			"count":978906,
			"type":"SCALAR"
		},
		{
			"bufferView":4,
			"componentType":5126,
			"count":125046,
			"max":[
				297.7101745605469,
				297.71014404296875,
				-184.83934020996094
			],
			"min":[
				-297.71014404296875,
				-297.710205078125,
				-372.41168212890625
			],
			"type":"VEC3"
		},
		{
			"bufferView":5,
			"componentType":5126,
			"count":125046,
			"type":"VEC3"
		},
		{
			"bufferView":6,
			"componentType":5126,
			"count":125046,
			"type":"VEC2"
		},
		{
			"bufferView":7,
			"componentType":5125,
			"count":200970,
			"type":"SCALAR"
		},
		{
			"bufferView":8,
			"componentType":5126,
			"count":512,
			"max":[
				124.35650634765625,
				119.53929901123047,
				-153.1265106201172
			],
			"min":[
				-115.05685424804688,
				-115.02008819580078,
				-161.84518432617188
			],
			"type":"VEC3"
		},
		{
			"bufferView":9,
			"componentType":5126,
			"count":512,
			"type":"VEC3"
		},
		{
			"bufferView":10,
			"componentType":5126,
			"count":512,
			"type":"VEC2"
		},
		{
			"bufferView":11,
			"componentType":5123,
			"count":1296,
			"type":"SCALAR"
		},
		{
			"bufferView":12,
			"componentType":5126,
			"count":5312,
			"max":[
				74.97100067138672,
				76.55999755859375,
				-203.97543334960938
			],
			"min":[
				-74.97100067138672,
				-76.55999755859375,
				-310.7696228027344
			],
			"type":"VEC3"
		},
		{
			"bufferView":13,
			"componentType":5126,
			"count":5312,
			"type":"VEC3"
		},
		{
			"bufferView":14,
			"componentType":5126,
			"count":5312,
			"type":"VEC2"
		},
		{
			"bufferView":15,
			"componentType":5123,
			"count":7872,
			"type":"SCALAR"
		},
		{
			"bufferView":16,
			"componentType":5126,
			"count":3894,
			"max":[
				73,
				73,
				-158.53872680664062
			],
			"min":[
				-73,
				-73,
				-213.53872680664062
			],
			"type":"VEC3"
		},
		{
			"bufferView":17,
			"componentType":5126,
			"count":3894,
			"type":"VEC3"
		},
		{
			"bufferView":18,
			"componentType":5126,
			"count":3894,
			"type":"VEC2"
		},
		{
			"bufferView":19,
			"componentType":5123,
			"count":7992,
			"type":"SCALAR"
		},
		{
			"bufferView":20,
			"componentType":5126,
			"count":3684,
			"max":[
				164.09927368164062,
				163.94786071777344,
				-34.82500076293945
			],
			"min":[
				-157.91700744628906,
				-163.8759765625,
				-188.8251190185547
			],
			"type":"VEC3"
		},
		{
			"bufferView":21,
			"componentType":5126,
			"count":3684,
			"type":"VEC3"
		},
		{
			"bufferView":22,
			"componentType":5126,
			"count":3684,
			"type":"VEC2"
		},
		{
			"bufferView":23,
			"componentType":5123,
			"count":8112,
			"type":"SCALAR"
		},
		{
			"bufferView":24,
			"componentType":5126,
			"count":11756,
			"max":[
				162.14369201660156,
				157.72169494628906,
				-34.98377227783203
			],
			"min":[
				-152.9744110107422,
				-157.62417602539062,
				-160.41598510742188
			],
			"type":"VEC3"
		},
		{
			"bufferView":25,
			"componentType":5126,
			"count":11756,
			"type":"VEC3"
		},
		{
			"bufferView":26,
			"componentType":5126,
			"count":11756,
			"type":"VEC2"
		},
		{
			"bufferView":27,
			"componentType":5123,
			"count":25167,
			"type":"SCALAR"
		}
	],
	"bufferViews":[
		{
			"buffer":0,
			"byteLength":7594692,
			"byteOffset":0,
			"target":34962
		},
		{
			"buffer":0,
			"byteLength":7594692,
			"byteOffset":7594692,
			"target":34962
		},
		{
			"buffer":0,
			"byteLength":5063128,
			"byteOffset":15189384,
			"target":34962
		},
		{
			"buffer":0,
			"byteLength":3915624,
			"byteOffset":20252512,
			"target":34963
		},
		{
			"buffer":0,
			"byteLength":1500552,
			"byteOffset":24168136,
			"target":34962
		},
		{
			"buffer":0,
			"byteLength":1500552,
			"byteOffset":25668688,
			"target":34962
		},
		{
			"buffer":0,
			"byteLength":1000368,
			"byteOffset":27169240,
			"target":34962
		},
		{
			"buffer":0,
			"byteLength":803880,
			"byteOffset":28169608,
			"target":34963
		},
		{
			"buffer":0,
			"byteLength":6144,
			"byteOffset":28973488,
			"target":34962
		},
		{
			"buffer":0,
			"byteLength":6144,
			"byteOffset":28979632,
			"target":34962
		},
		{
			"buffer":0,
			"byteLength":4096,
			"byteOffset":28985776,
			"target":34962
		},
		{
			"buffer":0,
			"byteLength":2592,
			"byteOffset":28989872,
			"target":34963
		},
		{
			"buffer":0,
			"byteLength":63744,
			"byteOffset":28992464,
			"target":34962
		},
		{
			"buffer":0,
			"byteLength":63744,
			"byteOffset":29056208,
			"target":34962
		},
		{
			"buffer":0,
			"byteLength":42496,
			"byteOffset":29119952,
			"target":34962
		},
		{
			"buffer":0,
			"byteLength":15744,
			"byteOffset":29162448,
			"target":34963
		},
		{
			"buffer":0,
			"byteLength":46728,
			"byteOffset":29178192,
			"target":34962
		},
		{
			"buffer":0,
			"byteLength":46728,
			"byteOffset":29224920,
			"target":34962
		},
		{
			"buffer":0,
			"byteLength":31152,
			"byteOffset":29271648,
			"target":34962
		},
		{
			"buffer":0,
			"byteLength":15984,
			"byteOffset":29302800,
			"target":34963
		},
		{
			"buffer":0,
			"byteLength":44208,
			"byteOffset":29318784,
			"target":34962
		},
		{
			"buffer":0,
			"byteLength":44208,
			"byteOffset":29362992,
			"target":34962
		},
		{
			"buffer":0,
			"byteLength":29472,
			"byteOffset":29407200,
			"target":34962
		},
		{
			"buffer":0,
			"byteLength":16224,
			"byteOffset":29436672,
			"target":34963
		},
		{
			"buffer":0,
			"byteLength":141072,
			"byteOffset":29452896,
			"target":34962
		},
		{
			"buffer":0,
			"byteLength":141072,
			"byteOffset":29593968,
			"target":34962
		},
		{
			"buffer":0,
			"byteLength":94048,
			"byteOffset":29735040,
			"target":34962
		},
		{
			"buffer":0,
			"byteLength":50334,
			"byteOffset":29829088,
			"target":34963
		}
	],
	"buffers":[
		{
			"byteLength":29879424,
			"uri":"taj_mahal.bin"
		}
	]
}
